<?xml version="1.0" encoding="UTF-8" standalone="no"?>
<!-- Created with Inkscape (http://www.inkscape.org/) -->

<svg
   width="53.489918mm"
   height="53.489929mm"
   viewBox="0 0 53.489918 53.489929"
   version="1.1"
   id="svg1"
   xml:space="preserve"
   xmlns="http://www.w3.org/2000/svg"
   xmlns:svg="http://www.w3.org/2000/svg"><defs
     id="defs1" /><g
     id="layer1"
     transform="translate(-32.168767,-90.521406)"><rect
       style="opacity:0.99;fill:#fe3900;fill-opacity:1;stroke-width:0.3;paint-order:markers stroke fill"
       id="rect10"
       width="53.489922"
       height="53.489922"
       x="32.168766"
       y="90.521408" /><path
       d="m 49.418729,134.70097 c -0.11218,-0.0825 -0.11856,-1.13442 -0.10142,-16.73648 l 0.0183,-16.64849 0.20767,-0.40983 c 0.23577,-0.46532 0.55503,-0.77518 1.02068,-0.990635 0.31951,-0.147843 0.34318,-0.148278 9.00714,-0.167181 8.04059,-0.0175 8.69646,-0.0098 8.81701,0.09892 0.11911,0.10783 0.13013,0.247556 0.12914,1.638036 -5.8e-4,0.8361 -0.0311,1.56771 -0.0678,1.62578 -0.0585,0.0926 -1.0073,0.10783 -7.72028,0.12412 -8.45224,0.0204 -7.8445,-0.0147 -7.94878,0.46005 -0.0887,0.40378 -0.0575,4.68385 0.035,4.79523 0.0532,0.064 0.16625,0.0896 0.30838,0.0697 1.03033,-0.14453 12.50132,-1.36569 12.5964,-1.34097 0.0677,0.0176 0.12319,0.01 0.12319,-0.0178 0,-0.0492 1.51842,-0.22028 1.94594,-0.21915 0.13641,3.6e-4 0.23764,0.0433 0.26399,0.11193 0.0235,0.0612 0.0427,0.8018 0.0427,1.64567 0,1.14445 -0.0224,1.55151 -0.088,1.60197 -0.0484,0.0372 -1.45014,0.21604 -3.115,0.3974 -10.12096,1.10252 -12.03745,1.32515 -12.08771,1.4042 -0.0636,0.1 -0.0647,0.13016 -0.0686,1.86729 -0.002,0.74857 0.0251,1.38931 0.0597,1.42385 0.0358,0.0358 3.0993,0.0711 7.10046,0.0821 l 7.03767,0.0192 0.37298,0.16852 c 0.45538,0.20576 0.95775,0.7547 1.10054,1.20258 0.0862,0.27051 0.10087,1.6286 0.0974,9.03192 -0.004,8.33844 -0.01,8.71646 -0.13172,8.78181 -0.0708,0.0379 -0.78536,0.0683 -1.6055,0.0683 -1.24968,0 -1.49497,-0.0171 -1.58851,-0.11063 -0.0992,-0.0992 -0.11062,-0.89726 -0.11062,-7.73121 v -7.62059 l -0.16293,-0.15306 c -0.15739,-0.14786 -0.21713,-0.15306 -1.75988,-0.15306 -0.87832,0 -1.59915,0.008 -1.60183,0.0176 -0.01,0.0349 -0.34961,2.98154 -0.37938,3.28846 -0.13654,1.40794 -0.34115,3.22476 -0.37291,3.3111 -0.0213,0.058 -0.0338,0.1531 -0.0276,0.21118 0.007,0.058 -0.19347,1.95603 -0.44369,4.21768 -0.31736,2.86849 -0.48248,4.12955 -0.54599,4.16984 -0.0501,0.0317 -0.792,0.0583 -1.64872,0.0588 -1.24933,8.7e-4 -1.57384,-0.0184 -1.63937,-0.0974 -0.0799,-0.0963 -0.009,-0.79026 1.34001,-13.01536 0.11866,-1.07588 0.19798,-2.00246 0.17627,-2.05907 -0.0337,-0.0877 -0.41926,-0.10294 -2.60639,-0.10294 h -2.56689 l -0.0487,0.15358 c -0.0268,0.0845 -0.0487,3.60166 -0.0486,7.81601 1.6e-4,7.32523 -0.005,7.66544 -0.12736,7.73071 -0.1979,0.10587 -3.03922,0.0883 -3.1862,-0.0198 z"
       style="fill:#f9f9f9;stroke-width:1.087"
       id="path1-6" /></g></svg>
